<svg width="12" height="15" viewBox="0 0 12 15" fill="none" xmlns="http://www.w3.org/2000/svg">
<path d="M1 7.5H7.15385C7.9699 7.5 8.75252 7.18393 9.32956 6.62132C9.90659 6.05871 10.2308 5.29565 10.2308 4.5C10.2308 3.70435 9.90659 2.94129 9.32956 2.37868C8.75252 1.81607 7.9699 1.5 7.15385 1.5H1V7.5ZM1 7.5H7.92308C8.73913 7.5 9.52175 7.81607 10.0988 8.37868C10.6758 8.94129 11 9.70435 11 10.5C11 11.2956 10.6758 12.0587 10.0988 12.6213C9.52175 13.1839 8.73913 13.5 7.92308 13.5H1V7.5Z" fill="none" stroke="currentColor" stroke-width="2" stroke-linecap="round" stroke-linejoin="round"/>
</svg>
