<svg width="30" height="30" viewBox="0 0 30 30" fill="none" xmlns="http://www.w3.org/2000/svg">
<path d="M13.75 5.00028H5C4.33696 5.00028 3.70107 5.26367 3.23223 5.73252C2.76339 6.20136 2.5 6.83724 2.5 7.50028V25.0003C2.5 25.6633 2.76339 26.2992 3.23223 26.768C3.70107 27.2369 4.33696 27.5003 5 27.5003H22.5C23.163 27.5003 23.7989 27.2369 24.2678 26.768C24.7366 26.2992 25 25.6633 25 25.0003V16.2503M23.125 3.12528C23.6223 2.628 24.2967 2.34863 25 2.34863C25.7033 2.34863 26.3777 2.628 26.875 3.12528C27.3723 3.62256 27.6517 4.29702 27.6517 5.00028C27.6517 5.70354 27.3723 6.378 26.875 6.87528L15 18.7503L10 20.0003L11.25 15.0003L23.125 3.12528Z" stroke="#181D27" stroke-width="2" stroke-linecap="round" stroke-linejoin="round"/>
</svg>
