<svg width="24" height="24" viewBox="0 0 24 24" fill="none" xmlns="http://www.w3.org/2000/svg">
<path d="M13.9998 13C13.5703 13.5741 13.0224 14.0491 12.3933 14.3929C11.7641 14.7367 11.0683 14.9411 10.3532 14.9923C9.63801 15.0435 8.92021 14.9403 8.24846 14.6897C7.5767 14.4392 6.96669 14.047 6.4598 13.54L3.4598 10.54C2.54901 9.59695 2.04504 8.33394 2.05643 7.02296C2.06782 5.71198 2.59367 4.45791 3.52071 3.53087C4.44775 2.60383 5.70181 2.07799 7.0128 2.0666C8.32378 2.0552 9.58679 2.55918 10.5298 3.46997L12.2498 5.17997M9.9998 11C10.4293 10.4258 10.9772 9.95078 11.6064 9.60703C12.2355 9.26327 12.9313 9.05885 13.6465 9.00763C14.3616 8.95641 15.0794 9.0596 15.7511 9.31018C16.4229 9.56077 17.0329 9.9529 17.5398 10.46L20.5398 13.46C21.4506 14.403 21.9546 15.666 21.9432 16.977C21.9318 18.288 21.4059 19.542 20.4789 20.4691C19.5519 21.3961 18.2978 21.9219 16.9868 21.9333C15.6758 21.9447 14.4128 21.4408 13.4698 20.53L11.7598 18.82" stroke="#676767" stroke-width="2" stroke-linecap="round" stroke-linejoin="round"/>
</svg>
