<svg width="40" height="40" viewBox="0 0 40 40" fill="none" xmlns="http://www.w3.org/2000/svg">
<path d="M35.3501 26.483C34.2898 28.9905 32.6314 31.2 30.5199 32.9185C28.4084 34.637 25.9081 35.8121 23.2375 36.341C20.5669 36.8699 17.8075 36.7366 15.2003 35.9527C12.5932 35.1688 10.2178 33.7581 8.2818 31.8441C6.34579 29.9301 4.90813 27.5709 4.09449 24.9729C3.28086 22.3749 3.11604 19.6172 3.61443 16.9407C4.11283 14.2643 5.25926 11.7507 6.95351 9.61972C8.64776 7.48873 10.8382 5.8052 13.3334 4.71634M36.6668 19.9997C36.6668 17.811 36.2357 15.6437 35.3981 13.6216C34.5605 11.5995 33.3329 9.7622 31.7852 8.21456C30.2376 6.66692 28.4003 5.43926 26.3782 4.60168C24.3561 3.7641 22.1888 3.33301 20.0001 3.33301V19.9997H36.6668Z" stroke="black" stroke-width="2" stroke-linecap="round" stroke-linejoin="round"/>
</svg>
