<svg width="285" height="275" viewBox="0 0 285 275" fill="none" xmlns="http://www.w3.org/2000/svg">
<path d="M224.827 272.078L196.929 237.201L170.125 217.663L115.605 158.317H179.971L211.516 196.116L242.697 220.219L285 272.078H224.827ZM138.944 275C119.616 275 101.504 271.531 84.6065 264.592C67.8311 257.531 53.0614 247.731 40.2975 235.193C27.6552 222.654 17.7479 208.046 10.5758 191.368C3.52527 174.568 0 156.552 0 137.317C0 117.961 3.52527 100.006 10.5758 83.4495C17.7479 66.7718 27.6552 52.2244 40.2975 39.8074C52.9399 27.2687 67.6488 17.5299 84.4242 10.591C101.321 3.53032 119.434 0 138.762 0C158.333 0 176.507 3.53032 193.282 10.591C210.058 17.5299 224.706 27.2687 237.226 39.8074C249.869 52.2244 259.655 66.7718 266.583 83.4495C273.634 100.127 277.159 118.083 277.159 137.317C277.159 156.673 273.634 174.69 266.583 191.368C259.655 208.046 249.869 222.654 237.226 235.193C224.706 247.731 210.058 257.531 193.282 264.592C176.507 271.531 158.394 275 138.944 275ZM138.397 220.402C149.581 220.402 159.974 218.271 169.578 214.011C179.181 209.75 187.569 203.846 194.741 196.298C201.913 188.751 207.505 179.925 211.516 169.821C215.528 159.717 217.534 148.882 217.534 137.317C217.534 125.509 215.467 114.614 211.334 104.631C207.322 94.5274 201.731 85.7625 194.559 78.3367C187.386 70.7891 178.999 64.9458 169.395 60.8068C159.792 56.6678 149.459 54.5983 138.397 54.5983C127.457 54.5983 117.185 56.6678 107.582 60.8068C98.0998 64.9458 89.7121 70.7891 82.4184 78.3367C75.2463 85.7625 69.6545 94.5274 65.643 104.631C61.6315 114.614 59.6257 125.509 59.6257 137.317C59.6257 149.004 61.6315 159.899 65.643 170.003C69.6545 180.107 75.2463 188.933 82.4184 196.481C89.5905 203.907 97.9175 209.75 107.399 214.011C117.003 218.271 127.335 220.402 138.397 220.402Z" fill="url(#paint0_linear_431_1461)"/>
<defs>
<linearGradient id="paint0_linear_431_1461" x1="20.3572" y1="16.5948" x2="191.162" y2="291.838" gradientUnits="userSpaceOnUse">
<stop stop-color="#EEB5FF"/>
<stop offset="1" stop-color="#8E70FF"/>
</linearGradient>
</defs>
</svg>
